<?xml version="1.0" encoding="UTF-8"?>
<!DOCTYPE svg PUBLIC "-//W3C//DTD SVG 1.1//EN" "http://www.w3.org/Graphics/SVG/1.1/DTD/svg11.dtd">
<svg xmlns="http://www.w3.org/2000/svg" version="1.1" width="176px" height="126px" style="shape-rendering:geometricPrecision; text-rendering:geometricPrecision; image-rendering:optimizeQuality; fill-rule:evenodd; clip-rule:evenodd" xmlns:xlink="http://www.w3.org/1999/xlink">
<g><path style="opacity:0.302" fill="#c2c4c1" d="M 95.5,27.5 C 89.8333,27.5 84.1667,27.5 78.5,27.5C 78.1667,27.5 77.8333,27.5 77.5,27.5C 77.9175,26.7784 78.5842,26.2784 79.5,26C 84.5,25.3333 89.5,25.3333 94.5,26C 95.056,26.3826 95.3893,26.8826 95.5,27.5 Z"/></g>
<g><path style="opacity:0.98" fill="#6d6d6b" d="M 77.5,27.5 C 77.8333,27.5 78.1667,27.5 78.5,27.5C 77.5525,28.9779 76.2191,29.9779 74.5,30.5C 71.507,31.4861 68.507,32.4861 65.5,33.5C 65.4142,32.5041 65.7476,31.6708 66.5,31C 69.7916,28.6893 73.4583,27.5226 77.5,27.5 Z"/></g>
<g><path style="opacity:1" fill="#201f22" d="M 78.5,27.5 C 84.1667,27.5 89.8333,27.5 95.5,27.5C 95.4701,28.4972 95.9701,29.1639 97,29.5C 100.137,30.3606 103.303,31.0272 106.5,31.5C 107.833,31.5 108.5,32.1667 108.5,33.5C 109.167,35.5 110.5,36.8333 112.5,37.5C 114.803,41.3355 116.97,45.3355 119,49.5C 121.117,57.6958 121.95,66.0291 121.5,74.5C 119.191,78.2886 116.524,81.9553 113.5,85.5C 112.754,86.7362 112.421,88.0695 112.5,89.5C 106.77,93.0749 100.604,96.0749 94,98.5C 87.1205,100.198 80.6205,99.531 74.5,96.5C 74.5,95.1667 74.5,93.8333 74.5,92.5C 71.0283,92.8738 68.0283,91.8738 65.5,89.5C 67.5417,88.4476 69.7084,87.7809 72,87.5C 75.5284,88.6984 79.0284,88.6984 82.5,87.5C 83.8655,84.3134 84.6988,80.9801 85,77.5C 85.3333,79.5 85.6667,81.5 86,83.5C 86.1745,78.6486 86.6745,73.9819 87.5,69.5C 87.5,75.1667 87.5,80.8333 87.5,86.5C 91.8461,86.6657 96.1794,86.499 100.5,86C 101.737,85.7679 102.737,85.2679 103.5,84.5C 105.136,83.2511 106.303,81.5844 107,79.5C 107.667,69.1667 107.667,58.8333 107,48.5C 104.955,42.3035 100.622,39.6368 94,40.5C 89.8036,40.76 85.8036,41.76 82,43.5C 80.3566,42.6854 78.8566,41.6854 77.5,40.5C 80.3865,40.0666 82.8865,38.7333 85,36.5C 85.6924,37.0253 86.1924,37.6919 86.5,38.5C 92.4632,39.4959 98.4632,39.8293 104.5,39.5C 104.5,38.1667 104.5,36.8333 104.5,35.5C 101.833,35.5 99.1667,35.5 96.5,35.5C 97.0352,32.7615 96.0352,30.9282 93.5,30C 87.9181,29.8084 82.4181,30.3084 77,31.5C 76.3292,30.7476 75.4959,30.4142 74.5,30.5C 76.2191,29.9779 77.5525,28.9779 78.5,27.5 Z"/></g>
<g><path style="opacity:0.102" fill="#bcbdba" d="M 95.5,27.5 C 99.8424,27.2779 103.509,28.6112 106.5,31.5C 103.303,31.0272 100.137,30.3606 97,29.5C 95.9701,29.1639 95.4701,28.4972 95.5,27.5 Z"/></g>
<g><path style="opacity:1" fill="#201e22" d="M 77.5,40.5 C 74.2869,40.19 71.2869,40.5233 68.5,41.5C 66.7706,42.2362 65.7706,43.5695 65.5,45.5C 64.2521,46.3339 63.5854,47.6672 63.5,49.5C 63.6667,50.8333 63.8333,52.1667 64,53.5C 64.414,53.9574 64.914,54.2907 65.5,54.5C 67.3885,53.396 69.0552,52.0627 70.5,50.5C 69.5,49.8333 68.5,49.1667 67.5,48.5C 68.1272,47.5832 68.4606,46.5832 68.5,45.5C 70.7638,44.7814 73.0971,44.448 75.5,44.5C 75.8633,46.9115 74.8633,48.4115 72.5,49C 74.5675,49.6869 76.5675,49.5202 78.5,48.5C 79.48,51.0865 79.8134,53.7531 79.5,56.5C 77.3109,60.2418 73.9776,61.9085 69.5,61.5C 69.5,62.5 69.5,63.5 69.5,64.5C 68.1059,66.4809 66.2726,68.1476 64,69.5C 60.1616,70.4071 56.1616,70.4071 52,69.5C 50.7829,61.4962 51.9496,53.9962 55.5,47C 55.0109,45.8615 54.6775,44.6948 54.5,43.5C 55.5832,43.4606 56.5832,43.1272 57.5,42.5C 59.6111,38.7377 62.2778,35.7377 65.5,33.5C 68.507,32.4861 71.507,31.4861 74.5,30.5C 75.4959,30.4142 76.3292,30.7476 77,31.5C 82.4181,30.3084 87.9181,29.8084 93.5,30C 96.0352,30.9282 97.0352,32.7615 96.5,35.5C 99.1667,35.5 101.833,35.5 104.5,35.5C 104.5,36.8333 104.5,38.1667 104.5,39.5C 98.4632,39.8293 92.4632,39.4959 86.5,38.5C 86.1924,37.6919 85.6924,37.0253 85,36.5C 82.8865,38.7333 80.3865,40.0666 77.5,40.5 Z"/></g>
<g><path style="opacity:0.167" fill="#cbcbca" d="M 108.5,33.5 C 110.833,33.8333 112.167,35.1667 112.5,37.5C 112.167,35.1667 110.833,33.8333 108.5,33.5 Z"/></g>
<g><path style="opacity:0.867" fill="#858685" d="M 65.5,33.5 C 62.2778,35.7377 59.6111,38.7377 57.5,42.5C 56.5832,43.1272 55.5832,43.4606 54.5,43.5C 56.1019,39.979 58.4352,36.979 61.5,34.5C 62.7362,33.7542 64.0695,33.4208 65.5,33.5 Z"/></g>
<g><path style="opacity:1" fill="#d8dad5" d="M 68.5,41.5 C 72.0479,41.0949 75.3812,41.5949 78.5,43C 75.5,43.3333 72.5,43.6667 69.5,44C 68.944,44.3826 68.6107,44.8826 68.5,45.5C 66.974,47.4499 65.974,49.7833 65.5,52.5C 64.2857,50.1413 64.2857,47.808 65.5,45.5C 65.7706,43.5695 66.7706,42.2362 68.5,41.5 Z"/></g>
<g><path style="opacity:0.004" fill="#fefffe" d="M 121.5,46.5 C 122.833,47.1667 122.833,47.1667 121.5,46.5 Z"/></g>
<g><path style="opacity:0.051" fill="#c8ccc7" d="M 139.5,49.5 C 136.167,49.5 132.833,49.5 129.5,49.5C 129.167,49.5 128.833,49.5 128.5,49.5C 129.871,48.2132 131.705,47.5465 134,47.5C 136.295,47.5465 138.129,48.2132 139.5,49.5 Z"/></g>
<g><path style="opacity:0.553" fill="#b4b6aa" d="M 29.5,49.5 C 26.5,49.5 23.5,49.5 20.5,49.5C 21.4919,47.9735 22.9919,47.3068 25,47.5C 27.0081,47.3068 28.5081,47.9735 29.5,49.5 Z"/></g>
<g><path style="opacity:0.22" fill="#bfbfbf" d="M 46.5,49.5 C 46.1667,49.5 45.8333,49.5 45.5,49.5C 40.8333,49.5 36.1667,49.5 31.5,49.5C 33.5706,48.1914 36.0706,47.5248 39,47.5C 41.9294,47.5248 44.4294,48.1914 46.5,49.5 Z"/></g>
<g><path style="opacity:1" fill="#201e22" d="M 90.5,63.5 C 90.0296,62.3065 89.0296,61.6399 87.5,61.5C 85.3887,61.4858 83.5553,62.1525 82,63.5C 80.8615,63.0109 79.6948,62.6775 78.5,62.5C 80.588,60.6644 81.9213,58.3311 82.5,55.5C 83.4794,52.3752 83.8128,49.0419 83.5,45.5C 90.1742,44.2168 96.8409,44.2168 103.5,45.5C 104.998,57.2057 104.832,68.8723 103,80.5C 99.285,83.079 95.1183,84.079 90.5,83.5C 90.5,76.8333 90.5,70.1667 90.5,63.5 Z"/></g>
<g><path style="opacity:0.165" fill="#c6c7c4" d="M 151.5,50.5 C 150.883,50.6107 150.383,50.944 150,51.5C 148.599,49.8078 146.766,49.1412 144.5,49.5C 143.262,49.19 143.262,48.69 144.5,48C 146.5,47.3333 148.5,47.3333 150.5,48C 151.252,48.6708 151.586,49.5041 151.5,50.5 Z"/></g>
<g><path style="opacity:0.859" fill="#2e302f" d="M 129.5,49.5 C 132.833,49.5 136.167,49.5 139.5,49.5C 139.833,49.5 140.167,49.5 140.5,49.5C 141.138,58.8955 140.471,67.8955 138.5,76.5C 138.665,73.4816 138.498,70.4816 138,67.5C 137.329,66.7476 136.496,66.4142 135.5,66.5C 134.833,66.5 134.167,66.5 133.5,66.5C 131.577,70.0293 130.911,74.0293 131.5,78.5C 130.778,78.0825 130.278,77.4158 130,76.5C 129.5,67.5062 129.334,58.5062 129.5,49.5 Z M 135.5,53.5 C 135.833,53.5 136.167,53.5 136.5,53.5C 136.5,56.1667 136.5,58.8333 136.5,61.5C 135.5,61.5 134.5,61.5 133.5,61.5C 132.964,58.3019 133.631,55.6353 135.5,53.5 Z"/></g>
<g><path style="opacity:1" fill="#838582" d="M 65.5,45.5 C 64.2857,47.808 64.2857,50.1413 65.5,52.5C 65.974,49.7833 66.974,47.4499 68.5,45.5C 68.4606,46.5832 68.1272,47.5832 67.5,48.5C 68.5,49.1667 69.5,49.8333 70.5,50.5C 69.0552,52.0627 67.3885,53.396 65.5,54.5C 64.914,54.2907 64.414,53.9574 64,53.5C 63.8333,52.1667 63.6667,50.8333 63.5,49.5C 63.5854,47.6672 64.2521,46.3339 65.5,45.5 Z"/></g>
<g><path style="opacity:0.778" fill="#727272" d="M 128.5,49.5 C 128.833,49.5 129.167,49.5 129.5,49.5C 129.334,58.5062 129.5,67.5062 130,76.5C 130.278,77.4158 130.778,78.0825 131.5,78.5C 130.791,79.404 129.791,79.7373 128.5,79.5C 128.5,69.5 128.5,59.5 128.5,49.5 Z"/></g>
<g><path style="opacity:0.047" fill="#d6d6d5" d="M 18.5,52.5 C 18.702,54.9496 18.3686,57.283 17.5,59.5C 16.8476,58.5514 16.5143,57.3847 16.5,56C 16.6083,54.3189 17.2749,53.1522 18.5,52.5 Z"/></g>
<g><path style="opacity:1" fill="#363936" d="M 20.5,49.5 C 23.5,49.5 26.5,49.5 29.5,49.5C 30.3382,49.8417 30.6716,50.5084 30.5,51.5C 30.5,53.5 30.5,55.5 30.5,57.5C 28.5168,57.8432 27.1834,57.1765 26.5,55.5C 26.2736,52.2357 24.7736,51.2357 22,52.5C 21.5172,53.448 21.3505,54.448 21.5,55.5C 21.5,55.8333 21.5,56.1667 21.5,56.5C 21.178,58.7224 21.8446,60.5557 23.5,62C 22.1807,62.195 20.8474,62.0283 19.5,61.5C 18.8333,60.8333 18.1667,60.1667 17.5,59.5C 18.3686,57.283 18.702,54.9496 18.5,52.5C 18.2852,50.8212 18.9519,49.8212 20.5,49.5 Z"/></g>
<g><path style="opacity:0.188" fill="#a1a3a0" d="M 26.5,55.5 C 24.9081,56.6016 24.0748,55.935 24,53.5C 23.2917,54.3805 22.4584,55.0472 21.5,55.5C 21.3505,54.448 21.5172,53.448 22,52.5C 24.7736,51.2357 26.2736,52.2357 26.5,55.5 Z"/></g>
<g><path style="opacity:0.157" fill="#bbbfbb" d="M 30.5,51.5 C 30.8333,51.5 31.1667,51.5 31.5,51.5C 32.3382,51.8417 32.6716,52.5084 32.5,53.5C 32.8432,55.4832 32.1765,56.8166 30.5,57.5C 30.5,55.5 30.5,53.5 30.5,51.5 Z"/></g>
<g><path style="opacity:0.027" fill="#dbe3da" d="M 42.5,53.5 C 43.135,62.2337 42.4684,70.5671 40.5,78.5C 41.1393,70.0674 41.806,61.7341 42.5,53.5 Z"/></g>
<g><path style="opacity:0.439" fill="#959795" d="M 135.5,53.5 C 133.631,55.6353 132.964,58.3019 133.5,61.5C 134.5,61.5 135.5,61.5 136.5,61.5C 136.5,58.8333 136.5,56.1667 136.5,53.5C 137.748,54.3339 138.415,55.6672 138.5,57.5C 138.333,58.8333 138.167,60.1667 138,61.5C 135.959,62.4231 133.792,62.7564 131.5,62.5C 131.5,58.8333 131.5,55.1667 131.5,51.5C 133.483,51.1568 134.817,51.8235 135.5,53.5 Z M 135.5,53.5 C 135.833,53.5 136.167,53.5 136.5,53.5C 136.5,56.1667 136.5,58.8333 136.5,61.5C 135.5,61.5 134.5,61.5 133.5,61.5C 132.964,58.3019 133.631,55.6353 135.5,53.5 Z"/></g>
<g><path style="opacity:0.271" fill="#babbb9" d="M 162.5,78.5 C 162.5,68.8333 162.5,59.1667 162.5,49.5C 160.833,49.5 159.167,49.5 157.5,49.5C 159.279,47.6565 161.612,46.9898 164.5,47.5C 165.142,58.2208 164.475,68.5541 162.5,78.5 Z"/></g>
<g><path style="opacity:0.625" fill="#5f6160" d="M 112.5,37.5 C 116.17,40.157 119.17,43.4904 121.5,47.5C 123.338,56.0596 123.838,64.7263 123,73.5C 122.617,74.056 122.117,74.3893 121.5,74.5C 121.95,66.0291 121.117,57.6958 119,49.5C 116.97,45.3355 114.803,41.3355 112.5,37.5 Z"/></g>
<g><path style="opacity:0.99" fill="#666867" d="M 21.5,56.5 C 24.2303,59.7127 27.2303,62.7127 30.5,65.5C 30.5,66.1667 30.5,66.8333 30.5,67.5C 28.9755,66.8262 27.6422,65.8262 26.5,64.5C 24.4807,65.1329 24.1474,66.1329 25.5,67.5C 24.7611,67.631 24.0944,67.4643 23.5,67C 22.2787,64.9663 20.9454,63.133 19.5,61.5C 20.8474,62.0283 22.1807,62.195 23.5,62C 21.8446,60.5557 21.178,58.7224 21.5,56.5 Z"/></g>
<g><path style="opacity:1" fill="#949993" d="M 68.5,41.5 C 71.2869,40.5233 74.2869,40.19 77.5,40.5C 78.8566,41.6854 80.3566,42.6854 82,43.5C 85.8036,41.76 89.8036,40.76 94,40.5C 100.622,39.6368 104.955,42.3035 107,48.5C 107.667,58.8333 107.667,69.1667 107,79.5C 106.303,81.5844 105.136,83.2511 103.5,84.5C 98.5,84.5 93.5,84.5 88.5,84.5C 87.8721,77.0869 88.5388,70.0869 90.5,63.5C 90.5,70.1667 90.5,76.8333 90.5,83.5C 95.1183,84.079 99.285,83.079 103,80.5C 104.832,68.8723 104.998,57.2057 103.5,45.5C 96.8409,44.2168 90.1742,44.2168 83.5,45.5C 83.8128,49.0419 83.4794,52.3752 82.5,55.5C 82.4476,51.8019 82.1143,48.1352 81.5,44.5C 80.325,44.281 79.325,44.6143 78.5,45.5C 80.6773,49.0811 81.0107,52.7478 79.5,56.5C 79.8134,53.7531 79.48,51.0865 78.5,48.5C 76.5675,49.5202 74.5675,49.6869 72.5,49C 74.8633,48.4115 75.8633,46.9115 75.5,44.5C 73.0971,44.448 70.7638,44.7814 68.5,45.5C 68.6107,44.8826 68.944,44.3826 69.5,44C 72.5,43.6667 75.5,43.3333 78.5,43C 75.3812,41.5949 72.0479,41.0949 68.5,41.5 Z"/></g>
<g><path style="opacity:0.169" fill="#595f59" d="M 45.5,49.5 C 45.8333,49.5 46.1667,49.5 46.5,49.5C 46.5,50.8333 46.5,52.1667 46.5,53.5C 45.1667,53.5 43.8333,53.5 42.5,53.5C 41.806,61.7341 41.1393,70.0674 40.5,78.5C 39.5,79.8333 38.5,79.8333 37.5,78.5C 37.5,77.8333 37.5,77.1667 37.5,76.5C 38.5,76.5 39.5,76.5 40.5,76.5C 40.5,68.1667 40.5,59.8333 40.5,51.5C 42.7812,51.9227 44.4479,51.256 45.5,49.5 Z"/></g>
<g><path style="opacity:1" fill="#222223" d="M 54.5,43.5 C 54.6775,44.6948 55.0109,45.8615 55.5,47C 51.9496,53.9962 50.7829,61.4962 52,69.5C 56.1616,70.4071 60.1616,70.4071 64,69.5C 66.2726,68.1476 68.1059,66.4809 69.5,64.5C 71.8333,64.5 74.1667,64.5 76.5,64.5C 72.8208,67.1916 68.8208,69.525 64.5,71.5C 63.3452,74.4459 63.1786,77.4459 64,80.5C 64.3826,81.056 64.8826,81.3893 65.5,81.5C 68.1357,85.9476 72.1357,87.4476 77.5,86C 78.3079,84.2942 79.6412,83.4609 81.5,83.5C 81.2627,82.209 81.596,81.209 82.5,80.5C 83.3261,75.6835 83.8261,70.6835 84,65.5C 85.0113,64.6634 86.1779,64.33 87.5,64.5C 87.5,66.1667 87.5,67.8333 87.5,69.5C 86.6745,73.9819 86.1745,78.6486 86,83.5C 85.6667,81.5 85.3333,79.5 85,77.5C 84.6988,80.9801 83.8655,84.3134 82.5,87.5C 79.0284,88.6984 75.5284,88.6984 72,87.5C 69.7084,87.7809 67.5417,88.4476 65.5,89.5C 68.0283,91.8738 71.0283,92.8738 74.5,92.5C 74.5,93.8333 74.5,95.1667 74.5,96.5C 70.6742,95.4944 67.0075,94.1611 63.5,92.5C 62.5226,88.8559 60.1893,86.5226 56.5,85.5C 54.9065,80.8705 53.2398,76.2038 51.5,71.5C 50.5046,65.8722 50.1712,60.2055 50.5,54.5C 50.4715,50.2452 51.8048,46.5785 54.5,43.5 Z"/></g>
<g><path style="opacity:0.084" fill="#cdd0cc" d="M 30.5,65.5 C 31.9723,67.1175 32.639,69.1175 32.5,71.5C 32.4146,73.3328 31.7479,74.6661 30.5,75.5C 30.5,72.8333 30.5,70.1667 30.5,67.5C 30.5,66.8333 30.5,66.1667 30.5,65.5 Z"/></g>
<g><path style="opacity:0.878" fill="#2a2d29" d="M 31.5,49.5 C 36.1667,49.5 40.8333,49.5 45.5,49.5C 44.4479,51.256 42.7812,51.9227 40.5,51.5C 40.5,59.8333 40.5,68.1667 40.5,76.5C 39.5,76.5 38.5,76.5 37.5,76.5C 38.1318,68.4271 37.4651,60.7605 35.5,53.5C 34.5,53.5 33.5,53.5 32.5,53.5C 32.6716,52.5084 32.3382,51.8417 31.5,51.5C 31.5,50.8333 31.5,50.1667 31.5,49.5 Z"/></g>
<g><path style="opacity:1" fill="#252326" d="M 78.5,80.5 C 77.5834,82.5106 75.9168,83.5106 73.5,83.5C 72.1667,83.3333 70.8333,83.1667 69.5,83C 68.7476,82.3292 68.4142,81.4959 68.5,80.5C 67.5651,77.8872 67.3985,75.2205 68,72.5C 71.7897,70.8487 75.6231,69.5154 79.5,68.5C 79.6054,72.5483 79.2721,76.5483 78.5,80.5 Z"/></g>
<g><path style="opacity:1" fill="#767975" d="M 90.5,63.5 C 88.5388,70.0869 87.8721,77.0869 88.5,84.5C 93.5,84.5 98.5,84.5 103.5,84.5C 102.737,85.2679 101.737,85.7679 100.5,86C 96.1794,86.499 91.8461,86.6657 87.5,86.5C 87.5,80.8333 87.5,75.1667 87.5,69.5C 87.5,67.8333 87.5,66.1667 87.5,64.5C 86.1779,64.33 85.0113,64.6634 84,65.5C 83.8261,70.6835 83.3261,75.6835 82.5,80.5C 82.6657,76.1539 82.499,71.8206 82,67.5C 81.3305,65.4098 80.1639,63.7432 78.5,62.5C 79.6948,62.6775 80.8615,63.0109 82,63.5C 83.5553,62.1525 85.3887,61.4858 87.5,61.5C 89.0296,61.6399 90.0296,62.3065 90.5,63.5 Z"/></g>
<g><path style="opacity:0.996" fill="#383a38" d="M 144.5,49.5 C 146.766,49.1412 148.599,49.8078 150,51.5C 150.383,50.944 150.883,50.6107 151.5,50.5C 152.051,53.8067 152.384,57.1401 152.5,60.5C 153.091,70.8249 154.425,70.9916 156.5,61C 157.163,57.5274 157.496,54.0274 157.5,50.5C 157.5,50.1667 157.5,49.8333 157.5,49.5C 159.167,49.5 160.833,49.5 162.5,49.5C 162.5,59.1667 162.5,68.8333 162.5,78.5C 159.563,79.4846 158.229,78.1512 158.5,74.5C 158.228,66.1135 157.394,65.7802 156,73.5C 155.092,75.4386 153.592,76.4386 151.5,76.5C 151.784,74.5853 151.451,72.9187 150.5,71.5C 150.762,70.0222 150.429,68.6888 149.5,67.5C 148.767,71.2039 148.1,74.8705 147.5,78.5C 146.791,79.404 145.791,79.7373 144.5,79.5C 144.5,69.5 144.5,59.5 144.5,49.5 Z"/></g>
<g><path style="opacity:0.046" fill="#e0e2df" d="M 150.5,71.5 C 150.083,74.1589 149.083,76.4922 147.5,78.5C 148.1,74.8705 148.767,71.2039 149.5,67.5C 150.429,68.6888 150.762,70.0222 150.5,71.5 Z"/></g>
<g><path style="opacity:0.365" fill="#a3a4a4" d="M 157.5,50.5 C 157.496,54.0274 157.163,57.5274 156.5,61C 154.425,70.9916 153.091,70.8249 152.5,60.5C 153.117,60.6107 153.617,60.944 154,61.5C 154.667,58.1667 155.333,54.8333 156,51.5C 156.383,50.944 156.883,50.6107 157.5,50.5 Z"/></g>
<g><path style="opacity:0.039" fill="#dbdedb" d="M 35.5,53.5 C 37.4651,60.7605 38.1318,68.4271 37.5,76.5C 37.5,77.1667 37.5,77.8333 37.5,78.5C 35.5316,70.5671 34.865,62.2337 35.5,53.5 Z"/></g>
<g><path style="opacity:1" fill="#d2d4d0" d="M 82.5,55.5 C 81.9213,58.3311 80.588,60.6644 78.5,62.5C 80.1639,63.7432 81.3305,65.4098 82,67.5C 82.499,71.8206 82.6657,76.1539 82.5,80.5C 81.596,81.209 81.2627,82.209 81.5,83.5C 79.6412,83.4609 78.3079,84.2942 77.5,86C 72.1357,87.4476 68.1357,85.9476 65.5,81.5C 64.5325,78.5547 64.3658,75.5547 65,72.5C 65.7486,75.5026 66.9152,78.1693 68.5,80.5C 68.4142,81.4959 68.7476,82.3292 69.5,83C 70.8333,83.1667 72.1667,83.3333 73.5,83.5C 75.9168,83.5106 77.5834,82.5106 78.5,80.5C 79.1174,80.3893 79.6174,80.056 80,79.5C 80.8265,75.4589 80.6599,71.4589 79.5,67.5C 78.7124,66.2299 77.7124,65.2299 76.5,64.5C 74.1667,64.5 71.8333,64.5 69.5,64.5C 69.5,63.5 69.5,62.5 69.5,61.5C 73.9776,61.9085 77.3109,60.2418 79.5,56.5C 81.0107,52.7478 80.6773,49.0811 78.5,45.5C 79.325,44.6143 80.325,44.281 81.5,44.5C 82.1143,48.1352 82.4476,51.8019 82.5,55.5 Z"/></g>
<g><path style="opacity:0.365" fill="#909190" d="M 133.5,66.5 C 134.089,70.9707 133.423,74.9707 131.5,78.5C 130.911,74.0293 131.577,70.0293 133.5,66.5 Z"/></g>
<g><path style="opacity:0.165" fill="#cbccc9" d="M 135.5,66.5 C 136.496,66.4142 137.329,66.7476 138,67.5C 138.498,70.4816 138.665,73.4816 138.5,76.5C 138.5,77.1667 138.5,77.8333 138.5,78.5C 137.883,78.3893 137.383,78.056 137,77.5C 136.76,73.7481 136.26,70.0814 135.5,66.5 Z"/></g>
<g><path style="opacity:0.267" fill="#777876" d="M 140.5,49.5 C 141.79,50.0577 142.623,51.0577 143,52.5C 143.85,56.5355 143.35,60.3688 141.5,64C 143.51,68.6089 144.01,73.4423 143,78.5C 141.51,79.7279 140.01,79.7279 138.5,78.5C 138.5,77.8333 138.5,77.1667 138.5,76.5C 140.471,67.8955 141.138,58.8955 140.5,49.5 Z"/></g>
<g><path style="opacity:0.855" fill="#8e908e" d="M 50.5,54.5 C 50.1712,60.2055 50.5046,65.8722 51.5,71.5C 53.2398,76.2038 54.9065,80.8705 56.5,85.5C 55.6236,85.6309 54.9569,85.2975 54.5,84.5C 52.3714,80.2778 50.5381,75.9444 49,71.5C 48.3333,66.1667 48.3333,60.8333 49,55.5C 49.3826,54.944 49.8826,54.6107 50.5,54.5 Z"/></g>
<g><path style="opacity:1" fill="#797b77" d="M 76.5,64.5 C 77.7124,65.2299 78.7124,66.2299 79.5,67.5C 80.6599,71.4589 80.8265,75.4589 80,79.5C 79.6174,80.056 79.1174,80.3893 78.5,80.5C 79.2721,76.5483 79.6054,72.5483 79.5,68.5C 75.6231,69.5154 71.7897,70.8487 68,72.5C 67.3985,75.2205 67.5651,77.8872 68.5,80.5C 66.9152,78.1693 65.7486,75.5026 65,72.5C 64.3658,75.5547 64.5325,78.5547 65.5,81.5C 64.8826,81.3893 64.3826,81.056 64,80.5C 63.1786,77.4459 63.3452,74.4459 64.5,71.5C 68.8208,69.525 72.8208,67.1916 76.5,64.5 Z"/></g>
<g><path style="opacity:1" fill="#353634" d="M 30.5,67.5 C 30.5,70.1667 30.5,72.8333 30.5,75.5C 30.5,75.8333 30.5,76.1667 30.5,76.5C 27.128,77.4485 23.7947,77.4485 20.5,76.5C 18.7711,74.1489 18.1044,71.4822 18.5,68.5C 19.5,68.5 20.5,68.5 21.5,68.5C 21.5,69.5 21.5,70.5 21.5,71.5C 21.5,72.5 21.5,73.5 21.5,74.5C 23.604,74.7989 25.604,74.4656 27.5,73.5C 27.1373,72.8165 26.8039,72.1499 26.5,71.5C 25.7659,70.2921 25.4326,68.9587 25.5,67.5C 24.1474,66.1329 24.4807,65.1329 26.5,64.5C 27.6422,65.8262 28.9755,66.8262 30.5,67.5 Z"/></g>
<g><path style="opacity:0.6" fill="#a6a7a5" d="M 21.5,71.5 C 22.4822,72.1408 23.4822,72.8075 24.5,73.5C 25.1818,72.7573 25.8485,72.0906 26.5,71.5C 26.8039,72.1499 27.1373,72.8165 27.5,73.5C 25.604,74.4656 23.604,74.7989 21.5,74.5C 21.5,73.5 21.5,72.5 21.5,71.5 Z"/></g>
<g><path style="opacity:0.192" fill="#9ea09a" d="M 18.5,68.5 C 18.1044,71.4822 18.7711,74.1489 20.5,76.5C 23.7947,77.4485 27.128,77.4485 30.5,76.5C 27.4215,79.7874 23.7549,80.2874 19.5,78C 16.2632,74.8233 15.9299,71.6567 18.5,68.5 Z"/></g>
<g><path style="opacity:0.125" fill="#8d8f8d" d="M 158.5,74.5 C 157.024,76.0619 155.524,77.7286 154,79.5C 152.989,78.6634 151.822,78.33 150.5,78.5C 150.5,76.1667 150.5,73.8333 150.5,71.5C 151.451,72.9187 151.784,74.5853 151.5,76.5C 153.592,76.4386 155.092,75.4386 156,73.5C 157.394,65.7802 158.228,66.1135 158.5,74.5 Z"/></g>
<g><path style="opacity:0.639" fill="#777976" d="M 121.5,74.5 C 121.567,76.4008 121.233,78.2341 120.5,80C 118.539,82.7553 116.706,85.5887 115,88.5C 114.329,89.2524 113.496,89.5858 112.5,89.5C 112.421,88.0695 112.754,86.7362 113.5,85.5C 116.524,81.9553 119.191,78.2886 121.5,74.5 Z"/></g>
<g><path style="opacity:0.753" fill="#7b7d7a" d="M 56.5,85.5 C 60.1893,86.5226 62.5226,88.8559 63.5,92.5C 62.5266,92.0133 61.5266,91.5133 60.5,91C 58.7898,89.3492 57.4564,87.5158 56.5,85.5 Z"/></g>
<g><path style="opacity:0.161" fill="#838381" d="M 112.5,89.5 C 111.785,91.5596 110.451,93.2263 108.5,94.5C 95.8361,102.371 82.6695,103.371 69,97.5C 66.7274,96.1476 64.8941,94.4809 63.5,92.5C 67.0075,94.1611 70.6742,95.4944 74.5,96.5C 80.6205,99.531 87.1205,100.198 94,98.5C 100.604,96.0749 106.77,93.0749 112.5,89.5 Z"/></g>
</svg>
